<svg xmlns="http://www.w3.org/2000/svg" viewBox="0 0 760 360" font-family="Helvetica, Arial, sans-serif" font-size="13">
<rect width="760" height="360" fill="#ffffff"/>
<text x="70" y="24" font-size="16" font-weight="600" fill="#1c1c1c">Lease handoff, p50 end to end by the orchestrator's own clock</text>
<text x="70" y="42" fill="#5a5a5a">demo-agent 512 MiB, us-east-1, microvm-ctl 0.3.0</text>
<line x1="70" x2="730" y1="290.0" y2="290.0" stroke="#e6e6e6"/>
<text x="62" y="294.0" text-anchor="end" fill="#5a5a5a">0s</text>
<line x1="70" x2="730" y1="230.0" y2="230.0" stroke="#e6e6e6"/>
<text x="62" y="234.0" text-anchor="end" fill="#5a5a5a">4s</text>
<line x1="70" x2="730" y1="170.0" y2="170.0" stroke="#e6e6e6"/>
<text x="62" y="174.0" text-anchor="end" fill="#5a5a5a">8s</text>
<line x1="70" x2="730" y1="110.0" y2="110.0" stroke="#e6e6e6"/>
<text x="62" y="114.0" text-anchor="end" fill="#5a5a5a">13s</text>
<line x1="70" x2="730" y1="50.0" y2="50.0" stroke="#e6e6e6"/>
<text x="62" y="54.0" text-anchor="end" fill="#5a5a5a">17s</text>
<rect x="106.0" y="226.7" width="70" height="63.3" rx="4" fill="#2f6fdd"/>
<text x="141.0" y="220.7" text-anchor="middle" fill="#1c1c1c">4.4s</text>
<rect x="184.0" y="225.3" width="70" height="64.7" rx="4" fill="#d9822b"/>
<text x="219.0" y="219.3" text-anchor="middle" fill="#1c1c1c">4.5s</text>
<text x="180.0" y="310" text-anchor="middle" fill="#1c1c1c">single lease</text>
<rect x="326.0" y="226.7" width="70" height="63.3" rx="4" fill="#2f6fdd"/>
<text x="361.0" y="220.7" text-anchor="middle" fill="#1c1c1c">4.4s</text>
<rect x="404.0" y="172.0" width="70" height="118.0" rx="4" fill="#d9822b"/>
<text x="439.0" y="166.0" text-anchor="middle" fill="#1c1c1c">8.2s</text>
<text x="400.0" y="310" text-anchor="middle" fill="#1c1c1c">fan-out of 4</text>
<rect x="546.0" y="163.4" width="70" height="126.6" rx="4" fill="#2f6fdd"/>
<text x="581.0" y="157.4" text-anchor="middle" fill="#1c1c1c">8.8s</text>
<rect x="624.0" y="90.0" width="70" height="200.0" rx="4" fill="#d9822b"/>
<text x="659.0" y="84.0" text-anchor="middle" fill="#1c1c1c">13.9s</text>
<text x="620.0" y="310" text-anchor="middle" fill="#1c1c1c">fan-out of 8</text>
<rect x="70" y="332" width="14" height="14" rx="3" fill="#2f6fdd"/>
<text x="90" y="344" fill="#1c1c1c">Step Functions</text>
<rect x="270" y="332" width="14" height="14" rx="3" fill="#d9822b"/>
<text x="290" y="344" fill="#1c1c1c">Lambda durable function</text>
</svg>